<svg width="515" height="102" viewBox="0 0 515 102" fill="none" xmlns="http://www.w3.org/2000/svg">
<g clip-path="url(#clip0_209_2)">
<path d="M8.72999 50.84C8.72999 52.98 8.88999 55.07 9.18999 57.12L16.96 52.59L24.43 48.23L50.83 32.83L77.24 48.24L84.71 52.59L92.48 57.12L100.49 61.8C99.84 64.75 98.93 67.6 97.79 70.33C96.89 72.51 95.84 74.61 94.65 76.62C85.8 91.61 69.47 101.68 50.84 101.68C32.21 101.68 16.63 92.05 7.64999 77.62L14.92 72.77C22.32 84.86 35.66 92.94 50.84 92.94C66.02 92.94 79.63 84.7 86.98 72.41C88.23 70.34 89.29 68.16 90.16 65.88L82.98 61.69L76.42 57.87L50.83 42.94L42.31 47.91L25.25 57.87L18.69 61.69L11.5 65.88L3.87999 70.33C2.73999 67.6 1.82999 64.74 1.17999 61.79C0.39999 58.26 -0.0100098 54.6 -0.0100098 50.84C-9.76585e-06 22.81 22.81 0 50.83 0C78.85 0 101.67 22.81 101.67 50.84C101.67 51.51 101.66 52.18 101.63 52.84L92.84 48.02C91.38 26.12 73.1 8.74 50.83 8.74C28.56 8.74 8.72999 27.62 8.72999 50.84Z" fill="#FF5600"/>
<path d="M50.83 77.38C38.63 77.38 28.33 69.1 25.25 57.87C24.63 55.63 24.3 53.28 24.3 50.84C24.3 49.96 24.34 49.09 24.43 48.23C25.75 34.81 37.08 24.3 50.83 24.3C60.63 24.3 69.21 29.64 73.81 37.57L83.87 43.09C80.36 28.1 66.88 16.92 50.84 16.92C32.14 16.92 16.92 32.14 16.92 50.85C16.92 51.44 16.93 52.03 16.97 52.6C17.13 55.76 17.73 58.81 18.7 61.7C19.47 64 20.49 66.19 21.72 68.24C27.65 78.14 38.48 84.78 50.84 84.78C63.2 84.78 73.85 78.25 79.81 68.5L73.32 64.94C68.62 72.42 60.3 77.39 50.84 77.39L50.83 77.38Z" fill="#064788"/>
<path d="M43.05 68.45C43.05 68.63 43.08 68.89 43.24 69.07C43.37 69.22 43.58 69.31 43.86 69.31H60.9V69.98H43.86C43.26 69.98 42.91 69.72 42.72 69.51C42.5 69.24 42.38 68.87 42.38 68.45C42.38 67.24 43.32 65.83 44.53 65.83H45.48L40.29 52H37.28V51.33H40.75L46.2 65.83H61.74V66.5H44.52C43.68 66.53 43.04 67.57 43.04 68.45H43.05Z" fill="#064788"/>
<path d="M43.24 53.13L47.3 64.58H61.51L64.84 53.13H43.24ZM61.02 63.91H47.78L44.2 53.81H63.96L62.56 58.61C60.8 59.33 60.11 59.4 59.54 58.96C59.19 58.68 58.9 58.31 58.63 57.95C58.25 57.47 57.87 56.96 57.31 56.68C56.1 56.06 55.04 56.3 53.82 57.47C53.43 57.21 52.97 57.09 52.49 57.11C51.91 57.14 51.37 57.4 50.99 57.84L49.67 59.32C48.86 60.22 48.94 61.6 49.84 62.4C50.25 62.76 50.76 62.96 51.3 62.96C51.34 62.96 51.38 62.96 51.42 62.96C52 62.93 52.54 62.67 52.93 62.23L54.25 60.75C54.97 59.95 54.98 58.75 54.32 57.94C55.46 56.84 56.21 56.89 57.01 57.29C57.43 57.5 57.75 57.93 58.1 58.37C58.4 58.77 58.71 59.17 59.13 59.51C59.5 59.8 59.89 59.93 60.35 59.93C60.88 59.93 61.51 59.76 62.33 59.45L61.03 63.93L61.02 63.91ZM52.39 59.87L53.79 58.35C54.25 58.92 54.24 59.75 53.74 60.3L52.42 61.78C52.15 62.08 51.78 62.26 51.38 62.28C50.98 62.3 50.59 62.17 50.28 61.9C49.66 61.34 49.61 60.38 50.16 59.76L51.49 58.28C51.76 57.98 52.13 57.8 52.53 57.78H52.62C52.9 57.78 53.18 57.86 53.42 58L52.02 59.53L52.4 59.87H52.39Z" fill="#064788"/>
<path d="M48.5801 74.19C47.7401 74.19 47.05 73.51 47.05 72.66C47.05 71.81 47.7301 71.13 48.5801 71.13C49.4301 71.13 50.1101 71.81 50.1101 72.66C50.1101 73.51 49.4301 74.19 48.5801 74.19ZM48.5801 71.64C48.0201 71.64 47.5601 72.1 47.5601 72.66C47.5601 73.22 48.0201 73.68 48.5801 73.68C49.1401 73.68 49.6 73.22 49.6 72.66C49.6 72.1 49.1401 71.64 48.5801 71.64Z" fill="#064788"/>
<path d="M56.51 74.19C55.67 74.19 54.98 73.51 54.98 72.66C54.98 71.81 55.66 71.13 56.51 71.13C57.36 71.13 58.04 71.81 58.04 72.66C58.04 73.51 57.36 74.19 56.51 74.19ZM56.51 71.64C55.95 71.64 55.49 72.1 55.49 72.66C55.49 73.22 55.95 73.68 56.51 73.68C57.07 73.68 57.53 73.22 57.53 72.66C57.53 72.1 57.07 71.64 56.51 71.64Z" fill="#064788"/>
<path d="M146.08 60.48C145.34 61.28 144.51 62.04 143.59 62.77C142.67 63.5 141.67 64.14 140.59 64.7C139.5 65.26 138.33 65.7 137.08 66.03C135.82 66.36 134.49 66.52 133.09 66.52C130.8 66.52 128.73 66.17 126.88 65.47C125.02 64.77 123.44 63.76 122.12 62.43C120.81 61.1 119.78 59.49 119.06 57.59C118.33 55.69 117.97 53.54 117.97 51.14C117.97 48.74 118.38 46.48 119.21 44.52C120.04 42.56 121.1 40.91 122.38 39.55C123.66 38.19 125.07 37.16 126.6 36.44C128.13 35.73 129.59 35.37 130.99 35.37C132.05 35.37 132.97 35.5 133.75 35.76C134.53 36.02 135.2 36.31 135.74 36.64C136.28 36.97 136.7 37.3 137.01 37.62C137.31 37.95 137.5 38.17 137.59 38.28L138.58 35.88H145.31V48.05H137.64C137.61 47.36 137.5 46.69 137.3 46.04C137.1 45.38 136.82 44.8 136.46 44.3C136.1 43.8 135.65 43.4 135.09 43.1C134.53 42.8 133.87 42.65 133.1 42.65C132.33 42.65 131.63 42.87 131 43.31C130.37 43.75 129.84 44.36 129.39 45.13C128.95 45.9 128.6 46.8 128.36 47.83C128.12 48.86 127.99 49.96 127.99 51.13C127.99 52.19 128.13 53.2 128.4 54.17C128.67 55.14 129.07 56 129.6 56.74C130.13 57.48 130.78 58.08 131.55 58.52C132.32 58.96 133.22 59.18 134.25 59.18C135.14 59.18 135.98 58.98 136.78 58.58C137.58 58.18 138.28 57.73 138.88 57.23C139.48 56.73 139.97 56.26 140.36 55.82C140.75 55.38 140.98 55.1 141.07 54.98L146.08 60.47V60.48Z" fill="#064788"/>
<path d="M147.79 35.88H161.67V41.54H159.01V48.01H167.15V41.54H164.62V35.88H178.55V41.54H176.06V60.18H178.55V65.84H164.62V60.18H167.15V53.71H159.01V60.18H161.67V65.84H147.79V60.18H150.15V41.54H147.79V35.88Z" fill="#064788"/>
<path d="M214.25 65.84H197.07V60.23H201.14L200.24 57.32H191.46L190.56 60.23H193.9V65.84H180.27V60.23H183.18L188.96 41.42H187.2V35.89H203.66L211.25 60.23H214.25V65.84ZM193.04 52.17H198.65L195.82 42.91L193.03 52.17H193.04Z" fill="#064788"/>
<path d="M215.97 35.88H229.85V41.54H227.19V48.01H235.33V41.54H232.8V35.88H246.73V41.54H244.24V60.18H246.73V65.84H232.8V60.18H235.33V53.71H227.19V60.18H229.85V65.84H215.97V60.18H218.33V41.54H215.97V35.88Z" fill="#064788"/>
<path d="M282.43 65.84H265.25V60.23H269.32L268.42 57.32H259.64L258.74 60.23H262.08V65.84H248.45V60.23H251.36L257.14 41.42H255.38V35.89H271.84L279.43 60.23H282.43V65.84ZM261.22 52.17H266.83L264 42.91L261.21 52.17H261.22Z" fill="#064788"/>
<path d="M316.96 41.41H314.13V65.84H304.92L293.99 49.51V60.31H297.29V65.84H284.14V60.31H286.67V41.41H284.18V35.88H296.48L307.02 51.61V41.41H304.06V35.88H316.96V41.41Z" fill="#064788"/>
<path d="M352.66 65.84H335.48V60.23H339.55L338.65 57.32H329.87L328.97 60.23H332.31V65.84H318.68V60.23H321.59L327.37 41.42H325.61V35.89H342.07L349.66 60.23H352.66V65.84ZM331.45 52.17H337.06L334.23 42.91L331.44 52.17H331.45Z" fill="#064788"/>
<path d="M365.08 65.84V55.04H373.05C373.05 55.93 373.25 56.65 373.65 57.2C374.05 57.76 374.53 58.19 375.09 58.51C375.65 58.83 376.23 59.04 376.85 59.15C377.46 59.26 378 59.32 378.46 59.32C378.83 59.32 379.23 59.29 379.66 59.23C380.09 59.17 380.48 59.07 380.84 58.91C381.2 58.75 381.5 58.54 381.74 58.27C381.98 58 382.1 57.63 382.1 57.18C382.1 56.64 381.69 56.19 380.88 55.83C380.07 55.47 379.05 55.12 377.84 54.78C376.63 54.44 375.31 54.04 373.88 53.6C372.45 53.16 371.13 52.55 369.92 51.78C368.7 51.01 367.69 50.03 366.88 48.85C366.07 47.66 365.66 46.16 365.66 44.33C365.66 42.76 365.99 41.39 366.67 40.22C367.35 39.05 368.18 38.09 369.2 37.35C370.21 36.61 371.31 36.05 372.5 35.68C373.69 35.31 374.81 35.12 375.86 35.12C376.75 35.12 377.63 35.2 378.52 35.35C379.41 35.51 380.25 35.76 381.05 36.1C381.85 36.44 382.57 36.89 383.21 37.45C383.85 38.01 384.39 38.69 384.82 39.48L385.25 35.88H392.62V46.63H384.86C384.86 45.83 384.72 45.12 384.43 44.51C384.14 43.9 383.75 43.37 383.25 42.95C382.75 42.52 382.16 42.2 381.49 41.99C380.82 41.78 380.11 41.67 379.37 41.67C379.06 41.67 378.73 41.72 378.39 41.82C378.05 41.92 377.73 42.06 377.43 42.25C377.13 42.44 376.89 42.67 376.7 42.96C376.51 43.24 376.42 43.57 376.42 43.94C376.42 44.68 376.84 45.3 377.69 45.78C378.53 46.27 379.58 46.72 380.84 47.15C382.1 47.58 383.45 48.04 384.91 48.54C386.37 49.04 387.72 49.66 388.98 50.4C390.24 51.14 391.29 52.07 392.13 53.19C392.97 54.3 393.39 55.7 393.39 57.39C393.39 59.08 393.04 60.49 392.34 61.63C391.64 62.77 390.74 63.71 389.64 64.44C388.54 65.17 387.32 65.69 385.98 66C384.64 66.32 383.32 66.47 382.04 66.47C380.95 66.47 379.95 66.36 379.04 66.13C378.13 65.9 377.3 65.6 376.55 65.23C375.81 64.86 375.14 64.44 374.56 63.97C373.98 63.5 373.48 63.02 373.08 62.53L372.61 65.83H365.11L365.08 65.84Z" fill="#FF5600"/>
<path d="M423.83 35.88V47.02H417.53V41.53H413.93V60.13H417.49V65.83H401.55V60.13H405.06V41.53H401.37V47.02H395.07V35.88H423.82H423.83Z" fill="#FF5600"/>
<path d="M440.46 66.61C438.23 66.61 436.17 66.28 434.29 65.63C432.4 64.97 430.78 63.99 429.43 62.67C428.08 61.35 427.02 59.71 426.26 57.72C425.5 55.73 425.12 53.4 425.12 50.71C425.12 48.4 425.49 46.28 426.21 44.37C426.94 42.46 427.97 40.81 429.3 39.42C430.63 38.04 432.21 36.96 434.06 36.21C435.9 35.45 437.94 35.07 440.17 35.07C442.8 35.07 445.08 35.45 447.01 36.21C448.94 36.97 450.54 38.04 451.81 39.42C453.08 40.81 454.02 42.48 454.64 44.46C455.25 46.43 455.56 48.62 455.56 51.02C455.56 53.42 455.23 55.63 454.58 57.55C453.93 59.47 452.95 61.11 451.67 62.46C450.38 63.8 448.81 64.83 446.93 65.55C445.06 66.26 442.91 66.62 440.48 66.62L440.46 66.61ZM440.46 59.88C441.15 59.88 441.75 59.67 442.28 59.24C442.81 58.81 443.27 58.21 443.65 57.44C444.04 56.67 444.33 55.74 444.53 54.65C444.73 53.57 444.83 52.35 444.83 51.01C444.83 49.67 444.74 48.48 444.55 47.35C444.36 46.22 444.08 45.24 443.69 44.39C443.3 43.55 442.81 42.88 442.21 42.4C441.61 41.91 440.9 41.67 440.07 41.67C439.41 41.67 438.82 41.89 438.29 42.33C437.76 42.77 437.31 43.39 436.92 44.19C436.54 44.99 436.23 45.95 436.02 47.06C435.81 48.17 435.7 49.39 435.7 50.7C435.7 52.1 435.82 53.36 436.07 54.49C436.31 55.62 436.64 56.58 437.05 57.38C437.46 58.18 437.96 58.79 438.55 59.22C439.14 59.65 439.77 59.86 440.46 59.86V59.88Z" fill="#FF5600"/>
<path d="M457.25 35.88H471.18C473.67 35.88 475.68 36.11 477.22 36.57C478.76 37.03 479.97 37.66 480.84 38.45C481.71 39.25 482.3 40.19 482.6 41.26C482.9 42.33 483.05 43.48 483.05 44.71C483.05 45.54 482.89 46.31 482.58 47.02C482.27 47.73 481.83 48.36 481.27 48.88C480.71 49.41 480.06 49.85 479.3 50.21C478.54 50.57 477.72 50.8 476.84 50.92C477.58 51.03 478.29 51.27 478.96 51.63C479.63 51.99 480.22 52.44 480.74 52.98C481.25 53.52 481.67 54.14 481.98 54.82C482.29 55.51 482.45 56.23 482.45 57C482.45 57.92 482.52 58.63 482.66 59.14C482.8 59.65 483.07 59.91 483.47 59.91C484.13 59.91 484.46 59.45 484.46 58.54V57.13H487.33V59.49C487.33 60.38 487.23 61.23 487.03 62.06C486.83 62.89 486.49 63.62 486 64.25C485.51 64.88 484.87 65.38 484.07 65.77C483.27 66.16 482.27 66.35 481.07 66.35C478.24 66.35 476.15 65.65 474.79 64.25C473.43 62.85 472.75 60.89 472.75 58.38C472.75 57.41 472.71 56.61 472.62 55.98C472.53 55.35 472.34 54.86 472.04 54.5C471.74 54.14 471.3 53.89 470.73 53.75C470.16 53.61 469.4 53.54 468.46 53.54V60.18H471.07V65.84H457.23V60.18H459.63V41.5H457.23V35.89L457.25 35.88ZM468.48 41.45V48.73H470.41C471.67 48.73 472.67 48.44 473.41 47.85C474.15 47.27 474.52 46.4 474.52 45.26C474.52 43.98 474.18 43.02 473.51 42.39C472.84 41.76 471.87 41.45 470.62 41.45H468.48Z" fill="#FF5600"/>
<path d="M488.83 35.88H514.67V45.35H507.26V41.54H500.4V47.45H508.54V53.15H500.4V60.14H507.26V56.15H514.67V65.83H488.83V60.13H491.53V41.53H488.83V35.87V35.88Z" fill="#FF5600"/>
</g>
<defs>
<clipPath id="clip0_209_2">
<rect width="515" height="102" fill="white"/>
</clipPath>
</defs>
</svg>
